<?xml version="1.0" standalone="no"?><!DOCTYPE svg PUBLIC "-//W3C//DTD SVG 1.1//EN" "http://www.w3.org/Graphics/SVG/1.1/DTD/svg11.dtd"><svg t="1497526784848" class="icon" style="" viewBox="0 0 1024 1024" version="1.1" xmlns="http://www.w3.org/2000/svg" p-id="1423" xmlns:xlink="http://www.w3.org/1999/xlink" width="200" height="200"><defs><style type="text/css"></style></defs><path d="M902.72 510.336c0 216-175.104 391.104-391.104 391.104S120.544 726.336 120.544 510.336 295.616 119.232 511.616 119.232 902.72 294.336 902.72 510.336z" fill="#67DDE0" p-id="1424"></path><path d="M749.056 356.672l97.76 223.488-111.744-27.936" fill="#FFFFFF" p-id="1425"></path><path d="M846.848 594.144a13.504 13.504 0 0 1-3.392-0.416l-111.744-27.936 6.784-27.104 84.16 21.024-86.368-197.44 25.6-11.2 97.76 223.488a13.952 13.952 0 0 1-12.8 19.584z" fill="#4D5152" p-id="1426"></path><path d="M469.728 356.672l-97.76 223.488 111.744-27.936" fill="#FFFFFF" p-id="1427"></path><path d="M371.936 594.144a13.952 13.952 0 0 1-12.768-19.552l97.76-223.488 25.6 11.2-86.368 197.44 84.16-21.024 6.784 27.104-111.744 27.936a17.824 17.824 0 0 1-3.424 0.384z" fill="#4D5152" p-id="1428"></path><path d="M609.376 286.848a180.704 180.704 0 0 1-111.072-38.144c-24.128 46.624-42.56 102.368-42.56 163.84 0 177.44 153.632 349.184 153.632 349.184s153.632-171.744 153.632-349.184c0-61.504-18.464-117.216-42.56-163.84a180.704 180.704 0 0 1-111.072 38.144z" fill="#FFB957" p-id="1429"></path><path d="M720.448 248.704c-45.472-87.936-111.072-143.424-111.072-143.424s-65.6 55.488-111.072 143.424a180.704 180.704 0 0 0 222.144 0z" fill="#FFFFFF" p-id="1430"></path><path d="M609.376 775.712a13.888 13.888 0 0 1-10.4-4.672c-6.432-7.168-157.216-177.792-157.216-358.496 0-181.824 152.128-312.48 158.592-317.952a13.952 13.952 0 0 1 18.048 0c6.464 5.472 158.592 136.128 158.592 317.952 0 180.704-150.784 351.328-157.216 358.496a13.824 13.824 0 0 1-10.4 4.672z m0-651.488c-32.224 30.784-139.68 144.256-139.68 288.352 0 143.456 105.632 285.44 139.68 327.456 34.016-42.048 139.68-184.16 139.68-327.456 0-144.096-107.424-257.568-139.68-288.352z" fill="#4D5152" p-id="1431"></path><path d="M735.104 915.392h-251.424l125.696-153.632 125.728 153.632z" fill="#FFFFFF" p-id="1432"></path><path d="M735.104 929.344h-251.424a13.92 13.92 0 0 1-10.784-22.816l125.696-153.632a14.496 14.496 0 0 1 21.632 0l125.696 153.632a13.952 13.952 0 0 1-10.816 22.816z m-221.952-27.936h192.448l-96.224-117.632-96.224 117.632z m96.224-600.576a193.632 193.632 0 0 1-120.384-41.44l17.216-22.016a165.888 165.888 0 0 0 103.168 35.488 165.888 165.888 0 0 0 103.136-35.456l17.216 22.016a193.632 193.632 0 0 1-120.352 41.408z m-13.952-111.744h27.936v27.936h-27.936v-27.936z m13.952 209.504a293.504 293.504 0 0 1-87.968-13.408l8.352-26.656a268.576 268.576 0 0 0 159.232 0l8.352 26.656a293.504 293.504 0 0 1-87.968 13.408zM218.304 468.416h27.936v335.232h-27.936V468.416z m0-377.12h27.936v293.312h-27.936V91.296zM344 929.344a125.824 125.824 0 0 1-125.696-125.696h27.936c0 53.92 43.872 97.76 97.76 97.76s97.76-43.872 97.76-97.76h27.936a125.824 125.824 0 0 1-125.696 125.696z m125.728-125.696h-27.936v-64.064l-59.968 59.968-19.744-19.744 83.808-83.808a13.952 13.952 0 0 1 23.84 9.856v97.792z" fill="#4D5152" p-id="1433"></path><path d="M190.368 426.528a41.92 41.92 0 1 0 83.84-0.032 41.92 41.92 0 0 0-83.84 0.032z" fill="#FFFFFF" p-id="1434"></path><path d="M232.256 482.4c-30.816 0-55.872-25.056-55.872-55.872s25.056-55.872 55.872-55.872 55.872 25.056 55.872 55.872-25.056 55.872-55.872 55.872z m0-83.808c-15.392 0-27.936 12.544-27.936 27.936s12.544 27.936 27.936 27.936 27.936-12.544 27.936-27.936-12.512-27.936-27.936-27.936z" fill="#4D5152" p-id="1435"></path></svg>